<svg width="38" height="42" viewBox="0 0 38 42" fill="none" xmlns="http://www.w3.org/2000/svg">
<path d="M0.481476 0L3.8474 37.7874L18.9605 42L34.1134 37.7727L37.4815 0H0.481476ZM30.487 8.6583L29.365 21.2457L29.3692 21.315L29.365 21.4704L28.5666 30.2694L28.4805 31.0527L18.9815 33.6777L18.9731 33.6861L9.493 31.0443L8.85007 23.7678H13.4977L13.8275 27.468L18.9815 28.8645L24.1522 27.4491L24.6985 21.4242H13.8906L13.7981 20.4057L13.5859 18.0201L13.4766 16.7391H25.1124L25.5368 12.0519H7.80794L7.71549 11.0334L7.50538 8.6457L7.39403 7.3647H30.5983L30.487 8.6583Z" fill="url(#paint0_linear_101_150)"/>
<defs>
<linearGradient id="paint0_linear_101_150" x1="18.9815" y1="0" x2="18.9815" y2="42" gradientUnits="userSpaceOnUse">
<stop stop-color="#FDFDFD"/>
<stop offset="1" stop-color="white" stop-opacity="0.18"/>
</linearGradient>
</defs>
</svg>
