<svg width="43" height="42" viewBox="0 0 43 42" fill="none" xmlns="http://www.w3.org/2000/svg">
<path d="M38.4268 0H5.42682C2.94244 0 0.926819 2.01562 0.926819 4.5V37.5C0.926819 39.9844 2.94244 42 5.42682 42H38.4268C40.9112 42 42.9268 39.9844 42.9268 37.5V4.5C42.9268 2.01562 40.9112 0 38.4268 0ZM23.7831 32.7562C23.7831 36.8438 21.3831 38.7094 17.8862 38.7094C14.7268 38.7094 12.8987 37.0781 11.9612 35.1L15.1768 33.1594C15.7956 34.2562 16.3581 35.1844 17.7174 35.1844C19.0112 35.1844 19.8362 34.6781 19.8362 32.7V19.2844H23.7831V32.7562ZM33.1206 38.7094C29.4549 38.7094 27.0831 36.9656 25.9299 34.6781L29.1456 32.8219C29.9893 34.2 31.0956 35.2219 33.0362 35.2219C34.6674 35.2219 35.7174 34.4062 35.7174 33.2719C35.7174 31.9219 34.6487 31.4437 32.8393 30.6469L31.8549 30.225C29.0049 29.0156 27.1206 27.4875 27.1206 24.2719C27.1206 21.3094 29.3799 19.0594 32.8956 19.0594C35.4081 19.0594 37.2081 19.9312 38.5018 22.2187L35.4268 24.1875C34.7518 22.9781 34.0206 22.5 32.8862 22.5C31.7331 22.5 31.0018 23.2312 31.0018 24.1875C31.0018 25.3687 31.7331 25.8469 33.4299 26.5875L34.4143 27.0094C37.7706 28.4437 39.6549 29.9156 39.6549 33.2156C39.6549 36.7594 36.8612 38.7094 33.1206 38.7094Z" fill="url(#paint0_linear_101_147)"/>
<defs>
<linearGradient id="paint0_linear_101_147" x1="21.9268" y1="0" x2="21.9268" y2="42" gradientUnits="userSpaceOnUse">
<stop stop-color="#FDFDFD"/>
<stop offset="1" stop-color="white" stop-opacity="0.18"/>
</linearGradient>
</defs>
</svg>
